<?xml version="1.0" standalone="no"?>
<!DOCTYPE svg PUBLIC "-//W3C//DTD SVG 20010904//EN"
 "http://www.w3.org/TR/2001/REC-SVG-20010904/DTD/svg10.dtd">
<svg version="1.0" xmlns="http://www.w3.org/2000/svg"
 width="1000.000000pt" height="1000.000000pt" viewBox="0 0 1000.000000 1000.000000"
 preserveAspectRatio="xMidYMid meet">
<metadata>
Created by potrace 1.11, written by Peter Selinger 2001-2013
</metadata>
<g transform="translate(0.000000,1000.000000) scale(0.100000,-0.100000)"
fill="#000000" stroke="none">
<path d="M2929 9917 c-34 -26 -208 -404 -224 -486 -2 -12 -7 -27 -12 -34 -4
-6 -9 -23 -11 -36 -2 -14 -7 -32 -12 -40 -8 -16 -69 -256 -75 -301 -2 -14 -7
-36 -10 -50 -3 -14 -7 -41 -10 -60 -3 -19 -7 -46 -9 -60 -8 -41 -14 -92 -21
-155 -4 -33 -8 -71 -11 -85 -17 -104 -24 -666 -10 -830 3 -41 9 -106 11 -145
3 -38 8 -90 11 -115 3 -25 7 -61 9 -80 6 -76 15 -145 51 -370 7 -50 23 -141
29 -170 3 -14 8 -41 11 -60 10 -64 74 -354 105 -474 16 -65 28 -123 27 -128
-2 -6 -96 -10 -245 -10 -133 0 -266 -5 -295 -10 -154 -28 -299 -135 -371 -275
-19 -37 -35 -71 -36 -75 -1 -5 -1 -9 -2 -10 -5 -18 -12 -51 -18 -88 -8 -53 -6
-1104 2 -1138 14 -56 20 -71 54 -140 44 -88 121 -169 207 -217 124 -69 111
-68 634 -70 260 -1 475 -5 478 -8 3 -3 8 -18 10 -34 5 -31 10 -56 19 -93 3
-14 8 -38 10 -55 9 -61 24 -134 51 -250 14 -62 25 -113 28 -132 2 -11 7 -30
10 -41 4 -11 9 -31 12 -44 9 -39 12 -53 14 -53 2 0 3 -5 13 -55 3 -14 11 -41
16 -60 6 -19 11 -36 11 -37 0 -1 -17 -22 -37 -46 -50 -58 -63 -74 -98 -122
-17 -22 -34 -45 -40 -51 -11 -13 -103 -146 -120 -172 -5 -9 -22 -35 -36 -57
-63 -96 -205 -389 -213 -437 -1 -7 -4 -17 -8 -23 -8 -15 -35 -111 -47 -175
-28 -142 -30 -278 -6 -388 3 -15 7 -36 10 -47 15 -73 54 -158 109 -240 41 -61
166 -191 228 -235 27 -19 44 -45 73 -115 20 -49 43 -103 50 -120 7 -16 25 -59
39 -95 69 -168 161 -353 193 -385 56 -57 118 -108 198 -160 82 -54 255 -148
255 -138 0 3 11 -2 25 -11 14 -9 25 -14 25 -11 0 3 13 -1 29 -10 30 -15 144
-48 216 -62 22 -4 254 -8 515 -9 261 -1 583 -2 715 -3 132 -1 251 1 265 4 14
3 39 7 55 9 17 3 57 12 90 21 33 9 65 18 72 19 7 1 16 5 19 9 4 4 14 7 23 7
23 0 301 139 301 150 0 6 3 9 8 8 15 -5 196 133 238 182 12 13 30 40 40 60 11
19 23 38 27 41 5 3 8 9 8 13 -1 3 12 36 29 72 16 37 30 73 30 80 0 8 5 14 10
14 6 0 10 6 10 12 0 7 37 101 82 210 79 189 84 199 128 230 47 34 200 186 200
199 0 4 6 14 13 21 7 7 18 24 25 38 6 14 16 32 22 40 24 38 61 136 77 210 21
97 20 308 -1 395 -11 41 -38 150 -40 160 -3 10 -8 23 -23 63 -3 9 -7 19 -8 22
-1 3 -7 18 -13 33 -7 16 -12 30 -12 33 0 16 -113 233 -172 330 -78 130 -231
344 -279 393 -26 26 -38 55 -29 71 4 8 20 69 35 135 14 66 31 131 35 145 5 14
11 41 14 61 3 20 8 42 10 50 3 8 7 25 10 39 3 14 14 68 24 120 11 52 22 109
25 125 3 17 8 41 11 55 3 14 8 38 10 54 3 16 7 31 10 34 3 2 214 5 468 6 255
1 469 5 476 9 7 5 25 11 39 13 39 7 115 47 171 89 98 75 170 191 195 313 9 45
12 205 11 599 -1 296 -5 552 -8 568 -31 171 -156 324 -321 392 -82 34 -140 41
-350 42 -110 0 -223 0 -251 0 l-50 1 36 143 c20 78 38 145 38 150 1 4 2 8 3
10 0 1 2 11 4 22 2 11 5 27 8 35 2 8 7 33 12 55 9 48 13 68 20 98 3 12 8 36
10 52 3 17 12 64 20 105 13 67 34 195 50 305 3 23 7 50 9 61 4 17 8 51 21 159
2 17 7 66 10 110 4 44 8 91 10 104 16 101 24 668 11 836 -13 179 -21 246 -46
400 -18 111 -22 133 -34 190 -2 11 -13 56 -25 101 -11 45 -22 90 -24 100 -2
10 -7 26 -10 34 -3 8 -11 33 -17 55 -6 22 -14 47 -17 55 -3 8 -7 20 -9 27 -1
6 -14 42 -30 80 -15 37 -27 74 -27 81 0 6 -4 12 -9 12 -4 0 -7 3 -6 8 2 14
-89 206 -134 280 -49 80 -118 23 -259 -216 -62 -104 -190 -354 -249 -487 -66
-148 -102 -235 -150 -355 -23 -58 -45 -114 -50 -125 -14 -33 -92 -239 -94
-250 -4 -18 -28 -90 -35 -100 -3 -5 -6 -14 -8 -20 -1 -5 -16 -50 -33 -100 -38
-107 -169 -521 -174 -550 -7 -34 -25 -75 -34 -75 -4 0 -8 9 -9 21 -1 11 -7 46
-14 76 -6 31 -12 66 -14 77 -1 12 -5 44 -9 71 -7 57 -14 116 -21 195 -3 30 -7
71 -9 90 -3 19 -7 62 -10 95 -12 112 -18 135 -36 145 -54 29 -76 1 -106 -135
-2 -11 -6 -29 -8 -40 -3 -11 -14 -60 -26 -110 -30 -125 -30 -126 -35 -164 -3
-18 -8 -37 -11 -42 -3 -5 -7 -25 -10 -44 -4 -32 -20 -85 -26 -85 -2 0 -4 30
-5 68 -1 37 -5 101 -8 142 -9 96 -13 149 -19 230 -3 36 -7 79 -10 95 -3 17 -7
50 -10 75 -3 25 -7 54 -9 65 -4 18 -16 91 -22 140 -10 68 -44 229 -63 298 -17
64 -45 87 -83 67 -25 -14 -28 -34 -28 -170 1 -123 -13 -415 -20 -415 -1 0 -4
-16 -5 -35 -8 -77 -18 -155 -22 -161 -2 -4 -6 -24 -10 -45 -11 -76 -72 -303
-84 -317 -4 -5 -11 13 -16 40 -4 26 -8 50 -9 53 -1 5 -15 102 -21 145 -14 110
-26 595 -14 595 3 0 5 21 6 48 1 72 18 260 30 332 2 14 6 48 9 75 7 55 11 84
25 165 17 95 19 104 24 135 8 44 -26 77 -64 63 -22 -7 -33 -22 -50 -66 -12
-31 -28 -70 -35 -87 -7 -16 -20 -52 -30 -80 -9 -27 -21 -59 -27 -70 -5 -12
-10 -27 -12 -35 -2 -8 -6 -23 -9 -32 -4 -10 -10 -26 -14 -35 -3 -10 -7 -22 -8
-28 -2 -5 -19 -64 -39 -130 -32 -110 -70 -254 -82 -315 -3 -14 -7 -32 -10 -41
-4 -14 -18 -89 -38 -199 -4 -25 -16 -104 -22 -150 -2 -14 -6 -43 -9 -65 -3
-22 -8 -78 -11 -124 -4 -47 -8 -92 -9 -100 -2 -9 -4 -20 -5 -26 -1 -10 -19 27
-25 55 -2 8 -13 47 -25 85 -20 69 -78 346 -78 375 0 8 -3 31 -6 50 -15 97 -21
169 -31 374 -5 114 -15 140 -54 143 -31 2 -54 -33 -79 -120 -12 -45 -25 -89
-27 -97 -12 -41 -35 -141 -40 -170 -1 -8 -5 -22 -8 -30 -6 -13 -27 -136 -41
-230 -8 -58 -18 -152 -21 -210 -2 -30 -4 -57 -5 -60 -1 -3 -2 -33 -2 -67 -1
-35 -4 -63 -8 -63 -7 0 -21 37 -48 120 -21 65 -50 210 -57 285 -2 22 -6 59
-10 83 -3 23 -7 89 -10 147 -2 58 -9 114 -15 126 -16 29 -76 23 -101 -11 -18
-24 -53 -112 -63 -161 -3 -13 -10 -44 -17 -69 -15 -61 -18 -77 -29 -135 -6
-27 -13 -61 -16 -75 -7 -33 -13 -65 -18 -92 -2 -13 -7 -39 -11 -58 -9 -49 -10
-54 -25 -152 -7 -48 -17 -85 -21 -82 -7 4 -27 60 -44 124 -1 3 -4 12 -7 20 -4
8 -20 60 -38 115 -17 55 -35 109 -40 120 -9 22 -33 94 -36 110 -1 6 -14 41
-29 79 -15 37 -28 73 -29 79 -2 7 -6 21 -10 32 -35 92 -89 234 -97 253 -5 12
-13 32 -18 45 -205 512 -434 957 -558 1081 -37 37 -66 44 -94 23z"/>
</g>
</svg>
